Coordinates
version=1
nRows=65
nColumns=12
inDegrees=yes

Units are S.I. units (second, meters, Newtons, ...)
Angles are in degrees

endheader
time	SC_y	SC_z	SC_x	AC_y	AC_z	AC_x	GH_y	GH_z	GH_yy	EL_x	PS_y
       0.0              -33.27          5.979          43.79          50.66          6.628         -17.17          42.36          -2.75          170.0          15.88          31.22
   0.02543              -33.27           5.98          43.79          50.66          6.625         -17.17          42.36         -2.742          170.0          15.88          31.24
   0.05087              -33.27          5.981          43.79          50.65          6.622         -17.17          42.37         -2.733          169.9          15.88          31.25
    0.0763              -33.26          5.982          43.78          50.65          6.619         -17.17          42.37         -2.724          169.9          15.88          31.27
    0.1017              -33.26          5.983          43.78          50.65          6.616         -17.17          42.38         -2.714          169.8          15.87          31.29
    0.1272              -33.26          5.985          43.78          50.64          6.613         -17.17          42.38         -2.704          169.7          15.87           31.3
    0.1526              -33.25          5.986          43.77          50.64          6.609         -17.17          42.39         -2.693          169.7          15.87          31.32
     0.178              -33.25          5.988          43.77          50.63          6.606         -17.17           42.4         -2.681          169.6          15.87          31.35
    0.2035              -33.24          5.989          43.77          50.63          6.601         -17.16           42.4         -2.669          169.5          15.87          31.37
    0.2289              -33.24          5.991          43.76          50.63          6.597         -17.16          42.41         -2.655          169.5          15.87          31.39
    0.2543              -33.23          5.993          43.76          50.62          6.592         -17.16          42.42          -2.64          169.4          15.86          31.42
    0.2798              -33.23          5.995          43.75          50.61          6.587         -17.16          42.43         -2.625          169.3          15.86          31.45
    0.3052              -33.22          5.997          43.74          50.61          6.582         -17.16          42.43         -2.608          169.2          15.86          31.48
    0.3306              -33.22            6.0          43.74           50.6          6.576         -17.16          42.44          -2.59          169.1          15.86          31.51
    0.3561              -33.21          6.002          43.73          50.59           6.57         -17.15          42.45          -2.57          169.0          15.85          31.55
    0.3815               -33.2          6.005          43.72          50.59          6.563         -17.15          42.47         -2.548          168.9          15.85          31.59
    0.4069              -33.19          6.008          43.72          50.58          6.555         -17.15          42.48         -2.525          168.7          15.85          31.63
    0.4324              -33.19          6.011          43.71          50.57          6.547         -17.15          42.49           -2.5          168.6          15.84          31.68
    0.4578              -33.18          6.015           43.7          50.56          6.538         -17.14          42.51         -2.472          168.4          15.84          31.73
    0.4832              -33.16          6.019          43.69          50.55          6.528         -17.14          42.52         -2.442          168.3          15.83          31.78
    0.5087              -33.15          6.023          43.68          50.54          6.518         -17.14          42.54         -2.408          168.1          15.83          31.84
    0.5341              -33.14          6.028          43.66          50.52          6.506         -17.13          42.56         -2.372          167.9          15.82          31.91
    0.5596              -33.13          6.033          43.65          50.51          6.493         -17.13          42.58         -2.331          167.7          15.82          31.98
     0.585              -33.11          6.039          43.63          50.49          6.478         -17.12          42.61         -2.287          167.4          15.81          32.06
    0.6104              -33.09          6.046          43.62          50.47          6.462         -17.12          42.63         -2.237          167.1           15.8          32.16
    0.6359              -33.07          6.053           43.6          50.45          6.444         -17.11          42.66         -2.181          166.8           15.8          32.26
    0.6613              -33.05          6.061          43.58          50.43          6.424          -17.1          42.69         -2.119          166.5          15.79          32.37
    0.6867              -33.03           6.07          43.55          50.41          6.401          -17.1          42.73         -2.049          166.1          15.78           32.5
    0.7122               -33.0          6.081          43.53          50.38          6.376         -17.09          42.77         -1.969          165.6          15.76          32.64
    0.7376              -32.97          6.092           43.5          50.35          6.347         -17.08          42.82         -1.879          165.1          15.75          32.81
     0.763              -32.93          6.106          43.46          50.31          6.314         -17.07          42.87         -1.777          164.5          15.74          32.99
    0.7885              -32.89          6.121          43.42          50.27          6.276         -17.05          42.94         -1.659          163.9          15.72          33.21
    0.8139              -32.84          6.139          43.37          50.22          6.232         -17.04          43.01         -1.523          163.1           15.7          33.46
    0.8393              -32.79           6.16          43.32          50.16          6.181         -17.02          43.09         -1.365          162.2          15.67          33.74
    0.8648              -32.72          6.184          43.26           50.1          6.121          -17.0          43.19          -1.18          161.2          15.65          34.08
    0.8902              -32.64          6.212          43.18          50.02          6.051         -16.98          43.31        -0.9619          160.0          15.62          34.48
    0.9156              -32.55          6.246          43.09          49.92          5.967         -16.95          43.44        -0.7029          158.5          15.58          34.95
    0.9411              -32.44          6.287          42.99          49.81          5.867         -16.91          43.61        -0.3923          156.8          15.53          35.52
    0.9665              -32.31          6.336          42.86          49.68          5.746         -16.87          43.81       -0.01662          154.6          15.48           36.2
    0.9919              -32.15          6.396           42.7          49.51          5.598         -16.82          44.05         0.4423          152.1          15.41          37.04
     1.017              -31.95           6.47          42.51          49.31          5.415         -16.76          44.35          1.009          148.9          15.32          38.07
     1.043               -31.7          6.562          42.26          49.06          5.188         -16.68          44.72          1.715          144.9          15.22          39.35
     1.068              -31.39          6.678          41.96          48.74          4.901         -16.59          45.19          2.605          139.9          15.09          40.98
     1.094              -30.99          6.826          41.57          48.33          4.536         -16.46          45.79          3.736          133.6          14.92          43.04
     1.119              -30.48          7.015          41.07          47.81          4.069          -16.3          46.56          5.184          125.4           14.7          45.67
     1.145              -29.83          7.257          40.44          47.15          3.469          -16.1          47.54          7.042          115.0          14.43          49.06
      1.17              -28.99          7.567          39.62          46.29          2.704         -15.84           48.8          9.415          101.7          14.08          53.38
     1.195              -27.94          7.957           38.6          45.22          1.741         -15.51          50.38           12.4           84.9          13.64          58.82
     1.221              -26.66          8.432          37.35          43.92         0.5685         -15.12          52.31          16.04          64.47           13.1          65.44
     1.246              -25.18          8.982          35.91          42.41        -0.7911         -14.65          54.54          20.25          40.79          12.47          73.12
     1.272              -23.57          9.578          34.34          40.77         -2.263         -14.15          56.95          24.82          15.15           11.8          81.44
     1.297              -21.97          10.17          32.78          39.13         -3.735         -13.65          59.37          29.38         -10.49          11.12          89.75
     1.323              -20.48          10.72          31.34          37.62         -5.095         -13.19           61.6          33.59         -34.17          10.49          97.43
     1.348               -19.2           11.2          30.09          36.31         -6.268         -12.79          63.53          37.23          -54.6          9.956          104.1
     1.373              -18.15          11.59          29.07          35.24          -7.23         -12.47          65.11          40.22         -71.36          9.514          109.5
     1.399              -17.32           11.9          28.25          34.39         -7.996         -12.21          66.36          42.59          -84.7          9.162          113.8
     1.424              -16.66          12.14          27.62          33.72         -8.595          -12.0          67.35          44.45         -95.13          8.887          117.2
      1.45              -16.16          12.33          27.12          33.21         -9.062         -11.84          68.11          45.89         -103.3          8.672          119.8
     1.475              -15.76          12.48          26.73           32.8         -9.427         -11.72          68.71          47.03         -109.6          8.504          121.9
     1.501              -15.44          12.59          26.43          32.48         -9.714         -11.62          69.18          47.92         -114.6          8.373          123.5
     1.526               -15.2          12.69          26.18          32.23         -9.942         -11.55          69.56          48.62         -118.6          8.268          124.8
     1.551               -15.0          12.76          25.99          32.02         -10.12         -11.48          69.86          49.19         -121.8          8.184          125.8
     1.577              -14.83          12.82          25.83          31.86         -10.27         -11.43           70.1          49.65         -124.3          8.116          126.7
     1.602               -14.7          12.87           25.7          31.72         -10.39         -11.39           70.3          50.02         -126.5           8.06          127.4
     1.628              -14.59          12.91           25.6          31.61         -10.49         -11.36          70.46          50.33         -128.2          8.014          127.9
